<svg width="50" height="41" viewBox="0 0 50 41" fill="none" xmlns="http://www.w3.org/2000/svg">
<path fill-rule="evenodd" clip-rule="evenodd" d="M42.1198 13.9767C42.1198 11.8742 43.7836 10.1697 45.8359 10.1697C47.1635 10.1697 48.3903 10.8953 49.0541 12.0732C49.7179 13.2511 49.7179 14.7023 49.0541 15.8802C48.3903 17.058 47.1635 17.7836 45.8359 17.7836C45.6359 17.7786 45.4366 17.7574 45.2399 17.7202L39.6425 33.0114H9.91418L4.31673 17.7202C4.12002 17.7574 3.92076 17.7786 3.72079 17.7836C2.07305 17.7856 0.620786 16.6758 0.153118 15.0572C-0.314549 13.4386 0.314077 11.6977 1.69741 10.7806C3.08075 9.86348 4.88841 9.98913 6.13815 11.0893C7.38789 12.1894 7.78124 14.0013 7.10445 15.5403L12.7019 18.9821C13.2727 19.332 13.9569 19.4319 14.6004 19.2596C15.244 19.0872 15.7928 18.6569 16.1234 18.0656L22.4331 6.75969C21.2135 5.74286 20.7506 4.04968 21.2773 2.53181C21.804 1.01394 23.2062 0 24.7787 0C26.3511 0 27.7534 1.01394 28.2801 2.53181C28.8068 4.04968 28.3439 5.74286 27.1243 6.75969L33.4339 18.0692C33.764 18.661 34.3126 19.0921 34.9562 19.2651C35.5997 19.4382 36.2842 19.3387 36.8555 18.9892L42.4639 15.5467C42.2391 15.0552 42.1217 14.5194 42.1198 13.9767ZM8.67568 35.5494H40.8813C41.5647 35.5513 42.1181 36.1183 42.12 36.8184V39.3563C42.1181 40.0564 41.5647 40.6234 40.8813 40.6253H8.67568C7.99236 40.6234 7.43889 40.0564 7.437 39.3563V36.8184C7.43889 36.1183 7.99236 35.5513 8.67568 35.5494Z" fill="#FAFAFA"/>
</svg>
