<svg width="17" height="17" viewBox="0 0 17 17" fill="none" xmlns="http://www.w3.org/2000/svg">
<path d="M10.7664 10.2397V14.1665H2.83334V6.23349H6.79995L7.89288 5.1001H2.83334C2.20961 5.1001 1.69995 5.61027 1.69995 6.23349V14.1665C1.69995 14.7896 2.20961 15.2999 2.83334 15.2999H10.7664C11.3896 15.2999 11.8998 14.7896 11.8998 14.1665V9.10649L10.7664 10.2397Z" fill="#AFB3BC"/>
<path d="M15.1349 3.46841L13.5323 1.86531C13.3121 1.64516 12.9512 1.64516 12.7311 1.86531L6.83036 7.76584L6.23315 10.7668L9.23416 10.1701L15.1347 4.26962C15.3552 4.04947 15.3552 3.68856 15.1349 3.46841ZM8.67588 9.1255L7.67594 9.32474L7.87467 8.32429L13.1318 3.06772L13.933 3.86893L8.67588 9.1255Z" fill="#AFB3BC"/>
</svg>
