<svg width="24" height="24" viewBox="0 0 24 24" fill="none" xmlns="http://www.w3.org/2000/svg">
<path d="M13.946 7.84582L13.7561 8.75H14.68H21C21.3315 8.75 21.6495 8.8817 21.8839 9.11612C22.1183 9.35054 22.25 9.66848 22.25 10V12C22.25 12.156 22.2214 12.3005 22.1654 12.4467L19.1506 19.4847L19.1506 19.4847L19.1477 19.4915C18.9616 19.9381 18.5207 20.25 18 20.25H9C8.66848 20.25 8.35054 20.1183 8.11612 19.8839C7.8817 19.6495 7.75 19.3315 7.75 19V9C7.75 8.65592 7.88595 8.34471 8.12033 8.11033L14.1725 2.05815L14.6997 2.58033C14.7 2.58068 14.7004 2.58103 14.7007 2.58138C14.8356 2.71684 14.92 2.908 14.92 3.11C14.92 3.1754 14.914 3.23456 14.9051 3.28008L13.946 7.84582ZM4.25 9.75V20.25H1.75V9.75H4.25Z" stroke="#A1DBEF" stroke-width="1.5"/>
<path d="M4 10L2 10.5L2.5 20H3.5L4 10Z" fill="#A1DBEF"/>
</svg>
