<svg width="20" height="20" viewBox="0 0 20 20" fill="none" xmlns="http://www.w3.org/2000/svg">
<path d="M12.6664 12.0468V16.6666H3.3334V7.33364H8L9.2858 6.00024H3.3334C2.5996 6.00024 2 6.60044 2 7.33364V16.6666C2 17.3996 2.5996 18 3.3334 18H12.6664C13.3996 18 13.9998 17.3996 13.9998 16.6666V10.7136L12.6664 12.0468Z" fill="#A2DCF0"/>
<path d="M17.8056 4.08049L15.9202 2.19449C15.6612 1.93549 15.2366 1.93549 14.9776 2.19449L8.0356 9.13629L7.333 12.6669L10.8636 11.9649L17.8054 5.02309C18.0648 4.76409 18.0648 4.33949 17.8056 4.08049ZM10.2068 10.7359L9.0304 10.9703L9.2642 9.79329L15.449 3.60909L16.3916 4.55169L10.2068 10.7359Z" fill="#A2DCF0"/>
</svg>
