<svg width="14" height="15" viewBox="0 0 14 15" fill="none" xmlns="http://www.w3.org/2000/svg">
<path d="M6.88325 2.95166C5.69283 2.95166 4.62099 3.44838 3.85673 4.24414L3.85631 2.95166H2.92349V5.36428C2.92349 5.62216 3.13265 5.8309 3.38969 5.8309L3.39011 5.83132L5.80315 5.8309V4.8985H4.52173C5.11687 4.27508 5.95365 3.88504 6.88325 3.88504C8.68687 3.88504 10.1499 5.34748 10.1499 7.15166C10.1499 8.95556 8.68701 10.4184 6.88325 10.4184C5.98137 10.4184 5.16475 10.0529 4.57367 9.46138L3.91329 10.1212C4.67349 10.8814 5.72349 11.3517 6.88325 11.3517C9.20291 11.3517 11.0833 9.47132 11.0833 7.15166C11.0834 4.832 9.20291 2.95166 6.88325 2.95166Z" fill="#3592B1"/>
</svg>
