<svg width="20" height="20" viewBox="0 0 20 20" fill="none" xmlns="http://www.w3.org/2000/svg">
<path d="M17.4142 14.5862L13.4102 10.5808C13.7844 9.7984 14 8.9254 14 8.0002C14.0002 4.6864 11.3136 2 8 2C4.6862 2 2 4.6864 2 8C2 11.3136 4.6862 14 8 14C8.9258 14 9.7982 13.7838 10.5814 13.4102L14.586 17.4142C15.3664 18.1954 16.6334 18.1954 17.4142 17.4142C18.1954 16.6328 18.1954 15.366 17.4142 14.5862ZM3.3334 8C3.3334 5.4218 5.4226 3.3332 8 3.3332C10.5776 3.3332 12.6666 5.4218 12.6666 8C12.6666 10.5766 10.5776 12.6666 8 12.6666C5.4226 12.6668 3.3334 10.5768 3.3334 8ZM16.4712 16.4714C16.2116 16.7318 15.7884 16.7318 15.5286 16.4714L11.7426 12.685C12.0902 12.406 12.4066 12.0896 12.6854 11.742L16.4712 15.5288C16.7318 15.7878 16.7318 16.211 16.4712 16.4714Z" fill="white"/>
</svg>
