<svg width="25" height="25" viewBox="0 0 25 25" fill="none" xmlns="http://www.w3.org/2000/svg">
<path d="M21.6667 10.8333H19.8077C19.6172 9.99676 19.2877 9.21626 18.8442 8.51226L20.1602 7.19626C20.484 6.87151 20.484 6.34176 20.1602 6.01701L18.9817 4.83851C18.6577 4.51476 18.1272 4.51476 17.8032 4.83851L16.4872 6.15526C15.7835 5.71176 15.0022 5.38126 14.1665 5.19176V3.33301C14.1665 2.87401 13.7912 2.49976 13.333 2.49976H11.6665C11.2082 2.49976 10.833 2.87426 10.833 3.33301V5.19176C9.99725 5.38126 9.21675 5.71176 8.51225 6.15526L7.197 4.83851C6.87225 4.51476 6.3425 4.51476 6.01775 4.83851L4.83925 6.01701C4.5155 6.34176 4.5155 6.87151 4.83925 7.19626L6.15525 8.51226C5.7125 9.21601 5.38225 9.99676 5.19175 10.8333H3.33275C2.87475 10.8333 2.4995 11.2078 2.4995 11.6665V13.3333C2.4995 13.7905 2.87475 14.1665 3.33275 14.1665H5.19175C5.38225 15.0015 5.7125 15.7828 6.15525 16.4873L4.83925 17.8025C4.5155 18.1265 4.5155 18.657 4.83925 18.981L6.01775 20.1593C6.3425 20.4833 6.87225 20.4833 7.197 20.1593L8.51225 18.8443C9.21675 19.287 9.99725 19.6173 10.833 19.8078V21.6668C10.833 22.124 11.2082 22.5 11.6665 22.5H13.333C13.7912 22.5 14.1665 22.124 14.1665 21.6668V19.8078C15.0022 19.6173 15.7835 19.287 16.4872 18.8443L17.8032 20.1593C18.1272 20.4833 18.6577 20.4833 18.9817 20.1593L20.1602 18.981C20.484 18.657 20.484 18.1265 20.1602 17.8025L18.8442 16.4873C19.2875 15.7828 19.6172 15.0015 19.8077 14.1665H21.6667C22.1247 14.1665 22.5 13.7905 22.5 13.3333V11.6665C22.5 11.2078 22.1247 10.8333 21.6667 10.8333ZM12.5 18.3333C9.278 18.3333 6.66675 15.721 6.66675 12.5C6.66675 9.27726 9.278 6.66676 12.5 6.66676C15.722 6.66676 18.3332 9.27726 18.3332 12.5C18.3332 15.721 15.722 18.3333 12.5 18.3333Z" fill="white"/>
</svg>
