<svg width="15" height="15" viewBox="0 0 15 15" fill="none" xmlns="http://www.w3.org/2000/svg">
<path d="M7.54545 9.75C7.07576 9.75 6.64583 9.63447 6.25568 9.40341C5.86553 9.17235 5.55492 8.86174 5.32386 8.47159C5.0928 8.08144 4.97727 7.65152 4.97727 7.18182C4.97727 6.70833 5.0928 6.27841 5.32386 5.89205C5.55492 5.50189 5.86553 5.19129 6.25568 4.96023C6.64583 4.72917 7.07576 4.61364 7.54545 4.61364C8.01894 4.61364 8.44886 4.72917 8.83523 4.96023C9.22538 5.19129 9.53599 5.50189 9.76705 5.89205C9.99811 6.27841 10.1136 6.70833 10.1136 7.18182C10.1136 7.65152 9.99621 8.08144 9.76136 8.47159C9.5303 8.86174 9.22159 9.17235 8.83523 9.40341C8.44886 9.63447 8.01894 9.75 7.54545 9.75ZM6.9375 3.47727V0.022727H8.15341V3.47727H6.9375ZM10.5909 5L9.72727 4.13636L12.1818 1.68182L13.0455 2.54545L10.5909 5ZM11.25 7.78977V6.57386H14.7045V7.78977H11.25ZM12.1818 12.6818L9.72727 10.2273L10.5909 9.36364L13.0455 11.8182L12.1818 12.6818ZM6.9375 14.3409V10.8864H8.15341V14.3409H6.9375ZM2.90909 12.6818L2.04545 11.8182L4.5 9.36364L5.36364 10.2273L2.90909 12.6818ZM0.386364 7.78977V6.57386H3.84091V7.78977H0.386364ZM4.5 5L2.04545 2.54545L2.90909 1.68182L5.36364 4.13636L4.5 5Z" fill="black"/>
</svg>
